<svg id="Fill_out_line" height="512" viewBox="0 0 512 512" width="512" xmlns="http://www.w3.org/2000/svg" data-name="Fill out line"><path d="m376 88h152v88h-152z" fill="#3ea7ff" transform="matrix(0 -1 1 0 320 584)"/><path d="m48 104h288v176h-288z" fill="#a0cc00"/><path d="m168 104h48v176h-48z" fill="#f2e368"/><g fill="#85b200"><path d="m112 104a63.99511 63.99511 0 0 1 -64 64v-64z"/><path d="m112 280h-64v-64a63.99511 63.99511 0 0 1 64 64z"/><path d="m336 104v64a63.99511 63.99511 0 0 1 -64-64z"/><path d="m336 216v64h-64a63.99511 63.99511 0 0 1 64-64z"/></g><path d="m336 104h48v176h-48z" fill="#719600"/><path d="m254.05612 161.94112-4.11811 4.11776a33.94054 33.94054 0 0 0 -9.94192 24.00055v.00005a33.94052 33.94052 0 0 0 33.94052 33.94052h.00134a33.94051 33.94051 0 0 0 23.999-9.94036l30.06105-30.05964a45.25617 45.25617 0 0 0 64.00091.001l.00109-.001h16v-112l-132.56476-41.86148a43.72019 43.72019 0 0 0 -36.63748 4.80587l-50.55382 32.17061a43.72012 43.72012 0 0 0 -20.24785 36.885h62.06144a33.94051 33.94051 0 0 1 33.94047 33.94052v.00005a33.94054 33.94054 0 0 1 -9.94188 24.00055z" fill="#ffc7cc"/><path d="m232 384 10.09027-40.36112a22.564 22.564 0 0 1 29.0257-15.93355l1.30632.43544a22.564 22.564 0 0 1 13.4839 30.57025l-21.90619 49.28898h-40z" fill="#ee818d"/><path d="m248 392 36.39091-60.65151a22.564 22.564 0 0 1 30.95759-7.7394 22.564 22.564 0 0 1 6.94288 32.19218l-58.29138 84.19873-40-24z" fill="#fe99a0"/><path d="m372 340a28.27036 28.27036 0 0 0 -40 0l-60.67993 60.67993-17.65007 17.65015h-.00274a23.90318 23.90318 0 0 0 2.33274-10.33008 24 24 0 0 0 -24-24h-56l-8.00006-8a56.56854 56.56854 0 0 0 -79.99988 0h-.00006v72l13.41 9.58008a163.32623 163.32623 0 0 0 210.43012-17.42017l60.15988-60.15991a28.27639 28.27639 0 0 0 0-40z" fill="#ffc7cc"/><path d="m56 352h32v120h-32z" fill="#65dcff"/><path d="m16 344h40v144h-40z" fill="#3ea7ff"/><path d="m400 56v5.084l-122.15576-38.57423a51.59475 51.59475 0 0 0 -43.34131 5.68554l-50.55371 32.1709a51.42156 51.42156 0 0 0 -23.315 35.63379h-112.63422a8.00008 8.00008 0 0 0 -8 8v176a8.00008 8.00008 0 0 0 8 8h336a8.00008 8.00008 0 0 0 8-8v-85.43848c1.07666-.81054 2.13379-1.65869 3.15967-2.56152h4.84033v16a8.00008 8.00008 0 0 0 8 8h88v-16h-80v-136h80v-16h-88a8.00008 8.00008 0 0 0 -8 8zm-126.062 176a42.25844 42.25844 0 0 0 9.44421-1.07373 71.75734 71.75734 0 0 0 -18.92713 41.07373h-40.45508v-160h6.05762a25.94059 25.94059 0 0 1 18.34179 44.28418l-4.11816 4.11719a41.941 41.941 0 0 0 29.65675 71.59863zm54.062-23.54492a71.42739 71.42739 0 0 0 -17.28369 4.1394l17.28369-17.28296zm0 16.12549v47.41943h-47.41943a56.11348 56.11348 0 0 1 47.41943-47.41943zm-120 47.41943h-32v-160h32zm-48 0h-40.45514a72.1216 72.1216 0 0 0 -63.54486-63.54492v-32.91016a72.1216 72.1216 0 0 0 63.54486-63.54492h40.45514zm-56.58057-160a56.11355 56.11355 0 0 1 -47.41943 47.41943v-47.41943zm-47.41943 112.58057a56.11355 56.11355 0 0 1 47.41943 47.41943h-47.41943zm320 47.41943h-32v-69.22266a53.61819 53.61819 0 0 0 32-.00048zm15.99854-95.999a7.9992 7.9992 0 0 0 -5.65625 2.34277 37.299 37.299 0 0 1 -52.6875-.001 8.00269 8.00269 0 0 0 -11.31348 0l-30.061 30.05957a25.94111 25.94111 0 1 1 -36.686-36.68652l4.11816-4.11719h.00049a41.941 41.941 0 0 0 -29.65534-71.59863h-53.16651a35.5372 35.5372 0 0 1 15.648-22.13574l50.55371-32.1709a35.63334 35.63334 0 0 1 29.93311-3.92578l126.97407 40.0957v98.13772z"/><path d="m64 488v-8h24a8.00008 8.00008 0 0 0 8-8v-8.45435l.75635.54029a171.33807 171.33807 0 0 0 220.74072-18.26856l60.15967-60.16015a36.28047 36.28047 0 0 0 -46.20239-55.55567 30.55216 30.55216 0 0 0 -51.00435-6.93556 31.1899 31.1899 0 0 0 -46.28638 19.19336l-8.41002 33.64064h-46.4396l-5.65722-5.65723a64.595 64.595 0 0 0 -77.65678-10.4353v-7.90747a8.00008 8.00008 0 0 0 -8-8h-24a8.00008 8.00008 0 0 0 -8-8h-40v16h32v128h-32v16h40a8.00008 8.00008 0 0 0 8-8zm236.207-159.17188a14.56083 14.56083 0 0 1 18.08182 13.56888l-55.823 55.823a31.9014 31.9014 0 0 0 -3.97656-8.15259l32.76174-54.60257a14.47209 14.47209 0 0 1 8.956-6.63672zm-50.521 17.41211a15.19483 15.19483 0 0 1 19.54687-10.72949 15.29562 15.29562 0 0 1 2.63062 1.16773l-25.61005 42.6831a31.78166 31.78166 0 0 0 -4.39722-1.80151zm-121.686 21.19043a48.25 48.25 0 0 1 34.34326 14.22657l8 8a8.00035 8.00035 0 0 0 5.65674 2.34277h56a16 16 0 0 1 0 32h-72v16h72a32.02646 32.02646 0 0 0 28.19434-16.88086l77.4624-77.46191a20.28409 20.28409 0 0 1 28.68652 28.68554l-60.15967 60.16016a155.33778 155.33778 0 0 1 -200.12744 16.56348l-10.05615-7.18311v-64.40576a48.20082 48.20082 0 0 1 32-12.04688zm-48-7.43066v104h-16v-104z"/></svg>